<?xml version="1.0" standalone="no"?>
<!DOCTYPE svg PUBLIC "-//W3C//DTD SVG 20010904//EN"
 "http://www.w3.org/TR/2001/REC-SVG-20010904/DTD/svg10.dtd">
<svg version="1.0" xmlns="http://www.w3.org/2000/svg"
 width="400.000000pt" height="400.000000pt" viewBox="0 0 400.000000 400.000000"
 preserveAspectRatio="xMidYMid meet">
<metadata>
Created by potrace 1.14, written by Peter Selinger 2001-2017
</metadata>
<g transform="translate(0.000000,400.000000) scale(0.100000,-0.100000)"
fill="#000000" stroke="none">
<path d="M2382 3993 c-10 -4 -10 -8 -1 -19 6 -8 7 -14 2 -14 -5 0 -10 -7 -10
-15 0 -8 5 -15 11 -15 8 0 8 -3 0 -8 -5 -4 -10 -18 -10 -32 0 -14 5 -28 10
-32 8 -5 8 -8 0 -8 -14 0 -14 -30 0 -30 6 0 4 -5 -4 -10 -13 -9 -13 -11 0 -20
8 -5 10 -10 4 -10 -14 0 -14 -30 0 -30 8 0 8 -3 0 -8 -5 -4 -10 -18 -10 -32 0
-14 5 -28 10 -32 8 -5 8 -8 0 -8 -14 0 -14 -30 0 -30 6 0 4 -5 -4 -10 -13 -9
-13 -11 0 -20 10 -6 11 -10 2 -10 -14 0 -12 -21 3 -32 6 -5 5 -8 -4 -8 -11 0
-11 -3 -1 -15 7 -8 8 -15 3 -15 -5 0 -10 -7 -10 -15 0 -8 5 -15 11 -15 7 0 7
-3 1 -8 -14 -10 -17 -32 -4 -32 8 0 8 -5 -1 -15 -10 -12 -10 -15 1 -15 12 0
12 -2 1 -9 -8 -4 -14 -12 -14 -16 0 -4 6 -12 14 -16 11 -7 11 -9 -1 -9 -11 0
-11 -3 -1 -15 7 -8 8 -15 3 -15 -5 0 -10 -7 -10 -15 0 -8 5 -15 11 -15 7 0 7
-3 1 -8 -14 -10 -17 -32 -4 -32 8 0 8 -5 -1 -15 -10 -12 -10 -15 1 -15 12 0
12 -2 1 -9 -17 -11 -17 -21 0 -32 11 -7 11 -9 -1 -9 -11 0 -11 -3 -1 -15 7 -8
8 -15 3 -15 -5 0 -10 -7 -10 -15 0 -8 5 -15 11 -15 8 0 8 -3 0 -8 -5 -4 -10
-18 -10 -32 0 -14 5 -28 10 -32 8 -5 8 -8 0 -8 -14 0 -14 -30 0 -30 6 0 4 -5
-4 -10 -13 -9 -13 -11 0 -20 8 -5 10 -10 4 -10 -14 0 -14 -30 0 -30 8 0 8 -3
0 -8 -5 -4 -10 -18 -10 -32 0 -14 5 -28 10 -32 8 -5 8 -8 0 -8 -14 0 -14 -30
0 -30 6 0 4 -5 -4 -10 -13 -9 -13 -11 0 -20 10 -6 11 -10 3 -10 -15 0 -13 -21
2 -32 6 -5 5 -8 -4 -8 -11 0 -11 -3 -1 -15 7 -8 8 -15 3 -15 -5 0 -10 -7 -10
-15 0 -8 5 -15 11 -15 7 0 7 -3 1 -8 -14 -10 -17 -32 -4 -32 8 0 8 -5 -1 -15
-10 -12 -10 -15 1 -15 12 0 12 -2 1 -9 -17 -11 -17 -21 0 -32 11 -7 11 -9 -1
-9 -11 0 -11 -3 -1 -15 7 -8 8 -15 3 -15 -5 0 -10 -7 -10 -15 0 -8 5 -15 11
-15 7 0 7 -3 1 -8 -14 -10 -17 -32 -4 -32 8 0 8 -5 -1 -15 -10 -12 -10 -15 1
-15 9 0 10 -3 4 -8 -15 -11 -17 -32 -2 -32 8 0 7 -4 -3 -10 -13 -9 -13 -11 0
-20 8 -5 10 -10 4 -10 -14 0 -14 -30 0 -30 8 0 8 -3 0 -8 -5 -4 -10 -18 -10
-32 0 -14 5 -28 10 -32 8 -5 8 -8 0 -8 -14 0 -14 -30 0 -30 6 0 4 -5 -4 -10
-13 -9 -13 -11 0 -20 8 -5 10 -10 4 -10 -14 0 -14 -30 0 -30 8 0 8 -3 0 -8 -5
-4 -10 -18 -10 -32 0 -14 5 -28 10 -32 8 -5 8 -8 0 -8 -14 0 -14 -30 0 -30 6
0 4 -5 -4 -10 -13 -9 -13 -11 0 -20 10 -6 11 -10 2 -10 -14 0 -12 -21 3 -32 6
-5 5 -8 -4 -8 -11 0 -11 -3 -1 -15 7 -8 8 -15 3 -15 -5 0 -10 -7 -10 -15 0 -8
5 -15 11 -15 7 0 7 -3 1 -8 -14 -10 -17 -32 -4 -32 8 0 8 -5 -1 -15 -10 -12
-10 -15 1 -15 12 0 12 -2 1 -9 -17 -11 -17 -21 0 -32 11 -7 11 -9 -1 -9 -11 0
-11 -3 -1 -15 7 -8 8 -15 3 -15 -5 0 -10 -7 -10 -15 0 -8 5 -15 11 -15 7 0 7
-3 1 -8 -14 -10 -17 -32 -4 -32 8 0 8 -5 -1 -15 -10 -12 -10 -15 1 -15 9 0 10
-3 4 -8 -15 -11 -17 -32 -3 -32 9 0 8 -4 -2 -10 -13 -9 -13 -11 0 -20 8 -5 10
-10 4 -10 -14 0 -14 -30 0 -30 8 0 8 -3 0 -8 -5 -4 -10 -18 -10 -32 0 -14 5
-28 10 -32 8 -5 8 -8 0 -8 -14 0 -14 -30 0 -30 6 0 4 -5 -4 -10 -13 -9 -13
-11 0 -20 8 -5 10 -10 4 -10 -14 0 -14 -30 0 -30 8 0 8 -3 0 -8 -5 -4 -10 -18
-10 -32 0 -14 5 -28 10 -32 8 -5 8 -8 0 -8 -6 0 -11 -7 -11 -15 0 -8 5 -15 10
-15 5 0 4 -7 -3 -15 -10 -12 -10 -15 1 -15 12 0 12 -2 1 -9 -17 -11 -17 -21 0
-32 11 -7 11 -9 -1 -9 -11 0 -11 -3 -1 -15 7 -8 8 -15 3 -15 -13 0 -11 -43 2
-52 6 -5 5 -8 -4 -8 -11 0 -11 -3 -1 -15 7 -8 8 -15 3 -15 -5 0 -10 -7 -10
-15 0 -8 5 -15 11 -15 7 0 7 -3 1 -8 -14 -10 -17 -32 -4 -32 8 0 8 -5 -1 -15
-10 -12 -10 -15 1 -15 9 0 10 -3 4 -8 -15 -11 -17 -32 -3 -32 9 0 8 -4 -2 -10
-13 -9 -13 -11 0 -20 8 -5 10 -10 4 -10 -14 0 -14 -30 0 -30 8 0 8 -3 0 -8 -5
-4 -10 -18 -10 -32 0 -14 5 -28 10 -32 8 -5 8 -8 0 -8 -14 0 -14 -30 0 -30 6
0 4 -5 -4 -10 -13 -9 -13 -11 0 -20 8 -5 10 -10 4 -10 -14 0 -14 -30 0 -30 8
0 8 -3 0 -8 -5 -4 -10 -18 -10 -32 0 -14 5 -28 10 -32 8 -5 8 -8 0 -8 -14 0
-14 -30 0 -30 6 0 4 -5 -4 -10 -13 -9 -13 -11 0 -20 10 -6 11 -10 3 -10 -15 0
-13 -21 2 -32 6 -5 5 -8 -4 -8 -11 0 -11 -3 -1 -15 7 -8 8 -15 3 -15 -5 0 -10
-7 -10 -15 0 -8 5 -15 11 -15 7 0 7 -3 1 -8 -14 -10 -17 -32 -4 -32 8 0 8 -5
-1 -15 -10 -12 -10 -15 1 -15 12 0 12 -2 1 -9 -8 -4 -14 -12 -14 -16 0 -4 6
-12 14 -16 11 -7 11 -9 -1 -9 -11 0 -11 -3 -1 -15 7 -8 8 -15 3 -15 -5 0 -10
-7 -10 -15 0 -8 5 -15 11 -15 7 0 7 -3 1 -8 -14 -10 -17 -32 -4 -32 8 0 8 -5
-1 -15 -10 -12 -10 -15 1 -15 9 0 10 -3 4 -8 -15 -11 -17 -32 -2 -32 8 0 7 -4
-3 -10 -13 -9 -13 -11 0 -20 10 -6 11 -10 3 -10 -15 0 -13 -21 2 -32 7 -5 6
-8 -1 -8 -6 0 -10 -13 -10 -30 l0 -30 813 0 813 0 0 2000 0 2000 -802 -1
c-442 0 -809 -3 -816 -6z"/>
</g>
</svg>
